<?xml version="1.0" encoding="UTF-8"?><svg id="Calque_1" xmlns="http://www.w3.org/2000/svg" xmlns:xlink="http://www.w3.org/1999/xlink" viewBox="0 0 750 500"><defs><style>.cls-1,.cls-2{fill:none;}.cls-3{clip-path:url(#clippath);}.cls-2{stroke:#494949;stroke-miterlimit:10;stroke-width:1.67px;}</style><clipPath id="clippath"><rect class="cls-1" width="748.79" height="500"/></clipPath></defs><g class="cls-3"><polyline class="cls-2" points="20.78 563.11 -75.84 391.19 -35.69 364.84 -45.73 309.62 3.21 249.38 -85.88 -10.38"/><polyline class="cls-2" points="24.86 563.11 -61.92 391.13 -37.46 373.8 -23.9 363.76 -34.01 308.81 -7.1 272.33 11.75 247.95 -67.77 -11.01"/><polyline class="cls-2" points="28.94 563.11 -48 391.07 -24.54 373.11 -12.12 362.69 -22.3 308 2.21 271.14 20.28 246.52 -49.65 -11.64"/><polyline class="cls-2" points="33.02 563.11 -34.08 391.02 -11.62 372.43 -.34 361.61 -10.58 307.19 11.51 269.94 28.81 245.09 -31.53 -12.27"/><polyline class="cls-2" points="37.1 563.11 -20.15 390.96 1.3 371.75 11.44 360.54 1.13 306.38 20.82 268.74 37.35 243.66 -13.41 -12.89"/><polyline class="cls-2" points="41.18 563.11 -6.23 390.9 14.21 371.07 23.22 359.46 12.84 305.57 30.12 267.55 45.88 242.23 4.71 -13.52"/><polyline class="cls-2" points="45.25 563.11 7.69 390.84 27.13 370.39 35.01 358.39 24.56 304.76 39.43 266.35 54.41 240.79 22.82 -14.15"/><polyline class="cls-2" points="49.33 563.11 21.61 390.78 40.05 369.71 46.79 357.31 36.27 303.95 48.73 265.16 62.94 239.36 40.94 -14.78"/><polyline class="cls-2" points="53.41 563.11 35.54 390.73 52.97 369.03 58.57 356.24 47.99 303.14 58.04 263.96 71.48 237.93 59.06 -15.4"/><polyline class="cls-2" points="57.49 563.11 49.46 390.67 65.89 368.35 70.35 355.16 59.7 302.33 67.34 262.77 80.01 236.5 77.18 -16.03"/><polyline class="cls-2" points="61.57 563.11 63.38 390.61 78.81 367.67 82.14 354.09 71.41 301.52 76.64 261.57 88.54 235.07 95.29 -16.66"/><polyline class="cls-2" points="65.65 563.11 77.3 390.55 91.72 366.99 93.92 353.01 83.13 300.71 85.95 260.38 97.08 233.64 113.41 -17.29"/><polyline class="cls-2" points="69.73 563.11 91.23 390.49 104.64 366.31 105.7 351.94 94.84 299.9 95.25 259.18 105.61 232.2 131.53 -17.91"/><polyline class="cls-2" points="73.8 563.11 105.15 390.44 117.56 365.62 117.48 350.86 106.56 299.09 104.56 257.99 114.14 230.77 149.65 -18.54"/><polyline class="cls-2" points="77.88 563.11 119.07 390.38 130.48 364.94 129.27 349.79 118.27 298.28 113.86 256.79 122.67 229.34 167.77 -19.17"/><polyline class="cls-2" points="81.96 563.11 133 390.32 143.4 364.26 141.05 348.71 129.98 297.47 123.17 255.6 131.21 227.91 185.88 -19.8"/><polyline class="cls-2" points="86.04 563.11 156.31 363.58 132.47 254.4 204 -20.42"/><polyline class="cls-2" points="93.57 563.11 163.84 363.58 140 254.4 211.53 -20.42"/><polyline class="cls-2" points="98.59 563.11 176.63 352.44 150.43 245.38 219.22 -20.42"/><polyline class="cls-2" points="103.61 563.11 189.41 341.31 160.86 236.36 226.9 -20.42"/><polyline class="cls-2" points="108.63 563.11 202.2 330.17 171.3 227.34 234.59 -20.42"/><polyline class="cls-2" points="113.65 563.11 214.98 319.03 181.73 218.32 242.28 -20.42"/><polyline class="cls-2" points="118.67 563.11 227.77 307.89 192.16 209.31 249.96 -20.42"/><polyline class="cls-2" points="123.69 563.11 240.55 296.76 202.59 200.29 257.65 -20.42"/><polyline class="cls-2" points="128.71 563.11 253.34 285.62 213.02 191.27 265.34 -20.42"/><polyline class="cls-2" points="133.73 563.11 266.12 274.48 223.45 182.25 273.02 -20.42"/><polyline class="cls-2" points="138.75 563.11 278.9 263.35 233.88 173.23 280.71 -20.42"/><polyline class="cls-2" points="143.77 563.11 291.69 252.21 244.32 164.21 288.39 -20.42"/><polyline class="cls-2" points="148.79 563.11 304.47 241.07 254.75 155.19 296.08 -20.42"/><polyline class="cls-2" points="153.81 563.11 317.26 229.93 265.18 146.17 303.77 -20.42"/><polyline class="cls-2" points="158.82 563.11 330.04 218.8 275.61 137.15 311.45 -20.42"/><polyline class="cls-2" points="163.84 563.11 342.83 207.66 286.04 128.13 319.14 -20.42"/><polyline class="cls-2" points="168.86 563.11 355.61 196.52 296.47 119.11 326.83 -20.42"/><polyline class="cls-2" points="173.88 563.11 368.4 185.38 306.9 110.09 334.51 -20.42"/><polyline class="cls-2" points="178.9 563.11 378.44 175.34 316.94 103.81 347.06 -20.42"/><polyline class="cls-2" points="198.75 564.94 287.58 370.62 343.04 264.88 383.26 177.16 326.73 104.16 333.19 74.05 358.58 -18.14"/><polyline class="cls-2" points="218.6 566.76 296.67 371.67 352.61 267.06 388.08 178.98 336.52 104.51 342.11 74.51 370.11 -15.86"/><polyline class="cls-2" points="238.45 568.59 305.75 372.73 362.17 269.24 392.91 180.79 346.31 104.86 351.02 74.98 381.63 -13.58"/><polyline class="cls-2" points="258.31 570.41 314.84 373.78 371.73 271.41 397.73 182.61 356.1 105.2 359.94 75.45 393.15 -11.3"/><polyline class="cls-2" points="278.16 572.24 323.92 374.83 381.3 273.59 402.56 184.42 365.89 105.55 368.86 75.91 404.67 -9.02"/><polyline class="cls-2" points="298.01 574.07 333.01 375.88 390.86 275.77 407.38 186.24 375.68 105.9 377.77 76.38 416.2 -6.73"/><polyline class="cls-2" points="317.86 575.89 342.09 376.94 400.42 277.95 412.21 188.06 385.47 106.25 386.69 76.85 427.72 -4.45"/><polyline class="cls-2" points="337.71 577.72 351.18 377.99 409.98 280.12 417.03 189.87 395.26 106.6 395.61 77.31 439.24 -2.17"/><polyline class="cls-2" points="357.56 579.54 360.26 379.04 419.55 282.3 421.86 191.69 405.05 106.94 404.52 77.78 450.76 .11"/><polyline class="cls-2" points="377.41 581.37 369.35 380.1 429.11 284.48 426.68 193.5 414.84 107.29 413.44 78.25 462.29 2.39"/><polyline class="cls-2" points="397.26 583.19 378.44 381.15 438.67 286.65 422.36 78.72 473.81 4.68"/><polyline class="cls-2" points="481.34 4.68 429.89 78.72 446.2 286.65 385.97 381.15 419.85 583.19"/><polyline class="cls-2" points="423.73 583.19 397.78 381.26 455.2 285.36 445.32 77.74 494.23 2.39"/><polyline class="cls-2" points="427.61 583.19 409.6 381.36 464.2 284.06 460.75 76.76 507.12 .11"/><polyline class="cls-2" points="431.48 583.19 421.42 381.47 473.21 282.77 476.18 75.79 520.01 -2.17"/><polyline class="cls-2" points="435.36 583.19 433.24 381.57 482.21 281.47 491.61 74.81 532.9 -4.45"/><polyline class="cls-2" points="439.24 583.19 445.06 381.68 491.21 280.18 507.04 73.84 545.8 -6.73"/><polyline class="cls-2" points="443.12 583.19 456.88 381.78 500.21 278.88 522.47 72.86 558.69 -9.02"/><polyline class="cls-2" points="447 583.19 468.7 381.89 509.21 277.59 537.9 71.89 571.58 -11.3"/><polyline class="cls-2" points="450.88 583.19 480.52 381.99 518.21 276.29 553.33 70.91 584.47 -13.58"/><polyline class="cls-2" points="454.76 583.19 492.33 382.1 527.22 275 568.76 69.94 597.36 -15.86"/><polyline class="cls-2" points="458.64 583.19 504.15 382.2 536.22 273.7 584.19 68.96 610.25 -18.14"/><line class="cls-2" x1="462.51" y1="583.19" x2="623.14" y2="-20.42"/><line class="cls-2" x1="466.96" y1="583.9" x2="638.36" y2="-20.58"/><polyline class="cls-2" points="471.53 583.34 553.78 328.73 597.37 141.58 646.25 -20.62"/><polyline class="cls-2" points="476.1 582.78 567.73 330.59 602.23 142.03 654.14 -20.66"/><polyline class="cls-2" points="480.67 582.22 581.67 332.45 607.09 142.49 662.03 -20.7"/><polyline class="cls-2" points="485.23 581.66 595.61 334.31 611.95 142.94 669.91 -20.74"/><polyline class="cls-2" points="489.8 581.1 609.56 336.17 616.8 143.39 677.8 -20.78"/><polyline class="cls-2" points="494.37 580.54 623.5 338.03 621.66 143.85 685.69 -20.82"/><polyline class="cls-2" points="498.94 579.98 637.44 339.89 626.52 144.3 693.58 -20.86"/><polyline class="cls-2" points="503.51 579.42 651.38 341.75 631.38 144.75 701.47 -20.9"/><polyline class="cls-2" points="508.08 578.86 665.33 343.61 636.24 145.2 709.35 -20.94"/><polyline class="cls-2" points="512.65 578.3 679.27 345.47 641.1 145.66 717.24 -20.98"/><polyline class="cls-2" points="517.21 577.73 693.21 347.33 645.96 146.11 725.13 -21.02"/><polyline class="cls-2" points="521.78 577.17 707.16 349.19 650.82 146.56 733.02 -21.06"/><polyline class="cls-2" points="526.35 576.61 721.1 351.05 655.68 147.02 740.91 -21.09"/><polyline class="cls-2" points="530.92 576.05 735.04 352.9 660.54 147.47 748.79 -21.13"/><polyline class="cls-2" points="532.79 575.66 743.86 353.54 668.3 147.74 759.93 -20.42"/><polyline class="cls-2" points="547.45 577.46 748.97 352.24 682.77 147.57 771.31 -20.42"/><polyline class="cls-2" points="562.11 579.25 754.09 350.94 697.24 147.41 782.7 -20.42"/><polyline class="cls-2" points="576.77 581.04 759.21 349.64 711.71 147.24 794.08 -20.42"/><polyline class="cls-2" points="591.43 582.83 764.32 348.35 726.19 147.08 805.47 -20.42"/><polyline class="cls-2" points="606.09 584.63 769.44 347.05 740.66 146.91 816.85 -20.42"/><polyline class="cls-2" points="620.75 586.42 774.55 345.75 755.13 146.75 828.23 -20.42"/><polyline class="cls-2" points="635.41 588.21 779.67 344.45 769.6 146.59 839.62 -20.42"/><polyline class="cls-2" points="650.07 590 784.78 343.15 784.07 146.42 851 -20.42"/><polyline class="cls-2" points="664.73 591.8 789.9 341.85 798.54 146.26 862.39 -20.42"/><polyline class="cls-2" points="679.39 593.59 795.02 340.55 813.02 146.09 873.77 -20.42"/><polyline class="cls-2" points="694.05 595.38 800.13 339.25 827.49 145.93 885.15 -20.42"/><polyline class="cls-2" points="708.71 597.18 805.25 337.95 841.96 145.76 896.54 -20.42"/><polyline class="cls-2" points="723.37 598.97 810.36 336.66 856.43 145.6 907.92 -20.42"/><line class="cls-2" x1="738.03" y1="600.76" x2="919.3" y2="-20.42"/></g></svg>
