<svg xmlns="http://www.w3.org/2000/svg" viewBox="0 0 139.07 113.86"><path d="M6.48,110.32a2.95,2.95,0,1,1-2.94-2.95A2.95,2.95,0,0,1,6.48,110.32Z" fill="none" stroke="#57535a" stroke-linecap="round" stroke-linejoin="round" stroke-width="1.18"/><circle cx="22.39" cy="110.32" r="2.95" fill="none" stroke="#57535a" stroke-linecap="round" stroke-linejoin="round" stroke-width="1.18"/><circle cx="41.25" cy="110.32" r="2.95" fill="none" stroke="#57535a" stroke-linecap="round" stroke-linejoin="round" stroke-width="1.18"/><circle cx="60.11" cy="110.32" r="2.95" fill="none" stroke="#57535a" stroke-linecap="round" stroke-linejoin="round" stroke-width="1.18"/><circle cx="78.96" cy="110.32" r="2.95" fill="none" stroke="#57535a" stroke-linecap="round" stroke-linejoin="round" stroke-width="1.18"/><circle cx="97.82" cy="110.32" r="2.95" fill="none" stroke="#57535a" stroke-linecap="round" stroke-linejoin="round" stroke-width="1.18"/><circle cx="116.68" cy="110.32" r="2.95" fill="none" stroke="#57535a" stroke-linecap="round" stroke-linejoin="round" stroke-width="1.18"/><path d="M138.48,110.32a2.95,2.95,0,1,1-2.95-2.95A2.95,2.95,0,0,1,138.48,110.32Z" fill="none" stroke="#57535a" stroke-linecap="round" stroke-linejoin="round" stroke-width="1.18"/><path d="M6.48,92.52a2.95,2.95,0,1,1-2.94-2.94A2.95,2.95,0,0,1,6.48,92.52Z" fill="none" stroke="#57535a" stroke-linecap="round" stroke-linejoin="round" stroke-width="1.18"/><circle cx="22.39" cy="92.52" r="2.95" fill="none" stroke="#57535a" stroke-linecap="round" stroke-linejoin="round" stroke-width="1.18"/><circle cx="41.25" cy="92.52" r="2.95" fill="none" stroke="#57535a" stroke-linecap="round" stroke-linejoin="round" stroke-width="1.18"/><circle cx="60.11" cy="92.52" r="2.95" fill="none" stroke="#57535a" stroke-linecap="round" stroke-linejoin="round" stroke-width="1.18"/><circle cx="78.96" cy="92.52" r="2.95" fill="none" stroke="#57535a" stroke-linecap="round" stroke-linejoin="round" stroke-width="1.18"/><circle cx="97.82" cy="92.52" r="2.95" fill="none" stroke="#57535a" stroke-linecap="round" stroke-linejoin="round" stroke-width="1.18"/><circle cx="116.68" cy="92.52" r="2.95" fill="none" stroke="#57535a" stroke-linecap="round" stroke-linejoin="round" stroke-width="1.18"/><path d="M138.48,92.52a2.95,2.95,0,1,1-2.95-2.94A2.95,2.95,0,0,1,138.48,92.52Z" fill="none" stroke="#57535a" stroke-linecap="round" stroke-linejoin="round" stroke-width="1.18"/><path d="M6.48,74.73a2.95,2.95,0,1,1-2.94-3A2.94,2.94,0,0,1,6.48,74.73Z" fill="none" stroke="#57535a" stroke-linecap="round" stroke-linejoin="round" stroke-width="1.18"/><circle cx="22.39" cy="74.73" r="2.95" fill="none" stroke="#57535a" stroke-linecap="round" stroke-linejoin="round" stroke-width="1.18"/><circle cx="41.25" cy="74.73" r="2.95" fill="none" stroke="#57535a" stroke-linecap="round" stroke-linejoin="round" stroke-width="1.18"/><circle cx="60.11" cy="74.73" r="2.95" fill="none" stroke="#57535a" stroke-linecap="round" stroke-linejoin="round" stroke-width="1.18"/><circle cx="78.96" cy="74.73" r="2.95" fill="none" stroke="#57535a" stroke-linecap="round" stroke-linejoin="round" stroke-width="1.18"/><circle cx="97.82" cy="74.73" r="2.95" fill="none" stroke="#57535a" stroke-linecap="round" stroke-linejoin="round" stroke-width="1.18"/><circle cx="116.68" cy="74.73" r="2.95" fill="none" stroke="#57535a" stroke-linecap="round" stroke-linejoin="round" stroke-width="1.18"/><path d="M138.48,74.73a2.95,2.95,0,1,1-2.95-3A2.95,2.95,0,0,1,138.48,74.73Z" fill="none" stroke="#57535a" stroke-linecap="round" stroke-linejoin="round" stroke-width="1.18"/><path d="M6.48,56.93a2.95,2.95,0,1,1-2.94-3A2.94,2.94,0,0,1,6.48,56.93Z" fill="none" stroke="#57535a" stroke-linecap="round" stroke-linejoin="round" stroke-width="1.18"/><path d="M25.34,56.93a2.95,2.95,0,1,1-2.95-3A2.94,2.94,0,0,1,25.34,56.93Z" fill="none" stroke="#57535a" stroke-linecap="round" stroke-linejoin="round" stroke-width="1.18"/><path d="M44.2,56.93a3,3,0,1,1-3-3A2.94,2.94,0,0,1,44.2,56.93Z" fill="none" stroke="#57535a" stroke-linecap="round" stroke-linejoin="round" stroke-width="1.18"/><path d="M63.05,56.93a2.95,2.95,0,1,1-2.94-3A2.94,2.94,0,0,1,63.05,56.93Z" fill="none" stroke="#57535a" stroke-linecap="round" stroke-linejoin="round" stroke-width="1.18"/><path d="M81.91,56.93a2.95,2.95,0,1,1-3-3A2.94,2.94,0,0,1,81.91,56.93Z" fill="none" stroke="#57535a" stroke-linecap="round" stroke-linejoin="round" stroke-width="1.18"/><path d="M100.77,56.93a3,3,0,1,1-3-3A2.94,2.94,0,0,1,100.77,56.93Z" fill="none" stroke="#57535a" stroke-linecap="round" stroke-linejoin="round" stroke-width="1.18"/><path d="M119.62,56.93a2.95,2.95,0,1,1-2.94-3A2.93,2.93,0,0,1,119.62,56.93Z" fill="none" stroke="#57535a" stroke-linecap="round" stroke-linejoin="round" stroke-width="1.18"/><path d="M138.48,56.93a2.95,2.95,0,1,1-2.95-3A2.94,2.94,0,0,1,138.48,56.93Z" fill="none" stroke="#57535a" stroke-linecap="round" stroke-linejoin="round" stroke-width="1.18"/><path d="M6.48,39.13a2.95,2.95,0,1,1-2.94-3A2.95,2.95,0,0,1,6.48,39.13Z" fill="none" stroke="#57535a" stroke-linecap="round" stroke-linejoin="round" stroke-width="1.18"/><path d="M25.34,39.13a2.95,2.95,0,1,1-2.95-3A2.95,2.95,0,0,1,25.34,39.13Z" fill="none" stroke="#57535a" stroke-linecap="round" stroke-linejoin="round" stroke-width="1.18"/><path d="M44.2,39.13a3,3,0,1,1-3-3A2.95,2.95,0,0,1,44.2,39.13Z" fill="none" stroke="#57535a" stroke-linecap="round" stroke-linejoin="round" stroke-width="1.18"/><path d="M63.05,39.13a2.95,2.95,0,1,1-2.94-3A2.95,2.95,0,0,1,63.05,39.13Z" fill="none" stroke="#57535a" stroke-linecap="round" stroke-linejoin="round" stroke-width="1.18"/><path d="M81.91,39.13a2.95,2.95,0,1,1-3-3A2.95,2.95,0,0,1,81.91,39.13Z" fill="none" stroke="#57535a" stroke-linecap="round" stroke-linejoin="round" stroke-width="1.18"/><path d="M100.77,39.13a3,3,0,1,1-3-3A2.95,2.95,0,0,1,100.77,39.13Z" fill="none" stroke="#57535a" stroke-linecap="round" stroke-linejoin="round" stroke-width="1.18"/><path d="M119.62,39.13a2.95,2.95,0,1,1-2.94-3A2.94,2.94,0,0,1,119.62,39.13Z" fill="none" stroke="#57535a" stroke-linecap="round" stroke-linejoin="round" stroke-width="1.18"/><path d="M138.48,39.13a2.95,2.95,0,1,1-2.95-3A2.95,2.95,0,0,1,138.48,39.13Z" fill="none" stroke="#57535a" stroke-linecap="round" stroke-linejoin="round" stroke-width="1.18"/><path d="M6.48,21.33a2.95,2.95,0,1,1-2.94-2.94A2.95,2.95,0,0,1,6.48,21.33Z" fill="none" stroke="#57535a" stroke-linecap="round" stroke-linejoin="round" stroke-width="1.18"/><path d="M25.34,21.33a2.95,2.95,0,1,1-2.95-2.94A2.95,2.95,0,0,1,25.34,21.33Z" fill="none" stroke="#57535a" stroke-linecap="round" stroke-linejoin="round" stroke-width="1.18"/><path d="M44.2,21.33a3,3,0,1,1-3-2.94A2.95,2.95,0,0,1,44.2,21.33Z" fill="none" stroke="#57535a" stroke-linecap="round" stroke-linejoin="round" stroke-width="1.18"/><path d="M63.05,21.33a2.95,2.95,0,1,1-2.94-2.94A2.95,2.95,0,0,1,63.05,21.33Z" fill="none" stroke="#57535a" stroke-linecap="round" stroke-linejoin="round" stroke-width="1.18"/><path d="M81.91,21.33a2.95,2.95,0,1,1-3-2.94A2.95,2.95,0,0,1,81.91,21.33Z" fill="none" stroke="#57535a" stroke-linecap="round" stroke-linejoin="round" stroke-width="1.18"/><path d="M100.77,21.33a3,3,0,1,1-3-2.94A2.95,2.95,0,0,1,100.77,21.33Z" fill="none" stroke="#57535a" stroke-linecap="round" stroke-linejoin="round" stroke-width="1.18"/><path d="M119.62,21.33a2.95,2.95,0,1,1-2.94-2.94A2.94,2.94,0,0,1,119.62,21.33Z" fill="none" stroke="#57535a" stroke-linecap="round" stroke-linejoin="round" stroke-width="1.18"/><path d="M138.48,21.33a2.95,2.95,0,1,1-2.95-2.94A2.95,2.95,0,0,1,138.48,21.33Z" fill="none" stroke="#57535a" stroke-linecap="round" stroke-linejoin="round" stroke-width="1.18"/><path d="M6.48,3.54A2.95,2.95,0,1,1,3.54.59,2.94,2.94,0,0,1,6.48,3.54Z" fill="none" stroke="#57535a" stroke-linecap="round" stroke-linejoin="round" stroke-width="1.18"/><circle cx="22.39" cy="3.54" r="2.95" fill="none" stroke="#57535a" stroke-linecap="round" stroke-linejoin="round" stroke-width="1.18"/><circle cx="41.25" cy="3.54" r="2.95" fill="none" stroke="#57535a" stroke-linecap="round" stroke-linejoin="round" stroke-width="1.18"/><circle cx="60.11" cy="3.54" r="2.95" fill="none" stroke="#57535a" stroke-linecap="round" stroke-linejoin="round" stroke-width="1.18"/><circle cx="78.96" cy="3.54" r="2.95" fill="none" stroke="#57535a" stroke-linecap="round" stroke-linejoin="round" stroke-width="1.18"/><circle cx="97.82" cy="3.54" r="2.95" fill="none" stroke="#57535a" stroke-linecap="round" stroke-linejoin="round" stroke-width="1.18"/><circle cx="116.68" cy="3.54" r="2.95" fill="none" stroke="#57535a" stroke-linecap="round" stroke-linejoin="round" stroke-width="1.18"/><path d="M138.48,3.54A2.95,2.95,0,1,1,135.53.59,2.95,2.95,0,0,1,138.48,3.54Z" fill="none" stroke="#57535a" stroke-linecap="round" stroke-linejoin="round" stroke-width="1.18"/></svg>