<svg xmlns="http://www.w3.org/2000/svg" viewBox="0 0 62.39 65.9"><circle cx="1.65" cy="1.65" r="1.4" fill="none" stroke="#57535a" stroke-linecap="round" stroke-linejoin="round" stroke-width="0.5"/><path d="M1.65,12a1.4,1.4,0,1,1,1.4-1.4A1.4,1.4,0,0,1,1.65,12Z" fill="none" stroke="#57535a" stroke-linecap="round" stroke-linejoin="round" stroke-width="0.5"/><circle cx="1.65" cy="19.54" r="1.4" fill="none" stroke="#57535a" stroke-linecap="round" stroke-linejoin="round" stroke-width="0.5"/><circle cx="1.65" cy="28.48" r="1.4" fill="none" stroke="#57535a" stroke-linecap="round" stroke-linejoin="round" stroke-width="0.5"/><circle cx="1.65" cy="37.42" r="1.4" fill="none" stroke="#57535a" stroke-linecap="round" stroke-linejoin="round" stroke-width="0.5"/><circle cx="1.65" cy="46.37" r="1.4" fill="none" stroke="#57535a" stroke-linecap="round" stroke-linejoin="round" stroke-width="0.5"/><path d="M1.65,56.71a1.4,1.4,0,1,1,1.4-1.4A1.4,1.4,0,0,1,1.65,56.71Z" fill="none" stroke="#57535a" stroke-linecap="round" stroke-linejoin="round" stroke-width="0.5"/><circle cx="1.65" cy="64.26" r="1.4" fill="none" stroke="#57535a" stroke-linecap="round" stroke-linejoin="round" stroke-width="0.5"/><circle cx="10.09" cy="1.65" r="1.4" fill="none" stroke="#57535a" stroke-linecap="round" stroke-linejoin="round" stroke-width="0.5"/><path d="M10.09,12a1.4,1.4,0,1,1,1.4-1.4A1.4,1.4,0,0,1,10.09,12Z" fill="none" stroke="#57535a" stroke-linecap="round" stroke-linejoin="round" stroke-width="0.5"/><circle cx="10.09" cy="19.54" r="1.4" fill="none" stroke="#57535a" stroke-linecap="round" stroke-linejoin="round" stroke-width="0.5"/><circle cx="10.09" cy="28.48" r="1.4" fill="none" stroke="#57535a" stroke-linecap="round" stroke-linejoin="round" stroke-width="0.5"/><circle cx="10.09" cy="37.42" r="1.4" fill="none" stroke="#57535a" stroke-linecap="round" stroke-linejoin="round" stroke-width="0.5"/><circle cx="10.09" cy="46.37" r="1.4" fill="none" stroke="#57535a" stroke-linecap="round" stroke-linejoin="round" stroke-width="0.5"/><path d="M10.09,56.71a1.4,1.4,0,1,1,1.4-1.4A1.4,1.4,0,0,1,10.09,56.71Z" fill="none" stroke="#57535a" stroke-linecap="round" stroke-linejoin="round" stroke-width="0.5"/><circle cx="18.53" cy="1.65" r="1.4" fill="none" stroke="#57535a" stroke-linecap="round" stroke-linejoin="round" stroke-width="0.5"/><path d="M18.53,12a1.4,1.4,0,1,1,1.4-1.4A1.4,1.4,0,0,1,18.53,12Z" fill="none" stroke="#57535a" stroke-linecap="round" stroke-linejoin="round" stroke-width="0.5"/><circle cx="18.53" cy="19.54" r="1.4" fill="none" stroke="#57535a" stroke-linecap="round" stroke-linejoin="round" stroke-width="0.5"/><circle cx="18.53" cy="28.48" r="1.4" fill="none" stroke="#57535a" stroke-linecap="round" stroke-linejoin="round" stroke-width="0.5"/><circle cx="18.53" cy="37.42" r="1.4" fill="none" stroke="#57535a" stroke-linecap="round" stroke-linejoin="round" stroke-width="0.5"/><circle cx="18.53" cy="46.37" r="1.4" fill="none" stroke="#57535a" stroke-linecap="round" stroke-linejoin="round" stroke-width="0.5"/><circle cx="26.97" cy="1.65" r="1.4" fill="none" stroke="#57535a" stroke-linecap="round" stroke-linejoin="round" stroke-width="0.5"/><path d="M27,12a1.4,1.4,0,1,1,1.4-1.4A1.4,1.4,0,0,1,27,12Z" fill="none" stroke="#57535a" stroke-linecap="round" stroke-linejoin="round" stroke-width="0.5"/><circle cx="26.97" cy="19.54" r="1.4" fill="none" stroke="#57535a" stroke-linecap="round" stroke-linejoin="round" stroke-width="0.5"/><circle cx="26.97" cy="28.48" r="1.4" fill="none" stroke="#57535a" stroke-linecap="round" stroke-linejoin="round" stroke-width="0.5"/><circle cx="26.97" cy="37.42" r="1.4" fill="none" stroke="#57535a" stroke-linecap="round" stroke-linejoin="round" stroke-width="0.5"/><circle cx="35.41" cy="1.65" r="1.4" fill="none" stroke="#57535a" stroke-linecap="round" stroke-linejoin="round" stroke-width="0.5"/><path d="M35.41,12a1.4,1.4,0,1,1,1.4-1.4A1.4,1.4,0,0,1,35.41,12Z" fill="none" stroke="#57535a" stroke-linecap="round" stroke-linejoin="round" stroke-width="0.5"/><circle cx="35.41" cy="19.54" r="1.4" fill="none" stroke="#57535a" stroke-linecap="round" stroke-linejoin="round" stroke-width="0.5"/><circle cx="35.41" cy="28.48" r="1.4" fill="none" stroke="#57535a" stroke-linecap="round" stroke-linejoin="round" stroke-width="0.5"/><path d="M43.86,3.05a1.4,1.4,0,1,1,1.39-1.4A1.4,1.4,0,0,1,43.86,3.05Z" fill="none" stroke="#57535a" stroke-linecap="round" stroke-linejoin="round" stroke-width="0.5"/><path d="M43.86,12a1.4,1.4,0,1,1,1.39-1.4A1.4,1.4,0,0,1,43.86,12Z" fill="none" stroke="#57535a" stroke-linecap="round" stroke-linejoin="round" stroke-width="0.5"/><path d="M43.86,20.93a1.4,1.4,0,1,1,1.39-1.39A1.39,1.39,0,0,1,43.86,20.93Z" fill="none" stroke="#57535a" stroke-linecap="round" stroke-linejoin="round" stroke-width="0.5"/><path d="M52.3,3.05a1.4,1.4,0,1,1,1.39-1.4A1.4,1.4,0,0,1,52.3,3.05Z" fill="none" stroke="#57535a" stroke-linecap="round" stroke-linejoin="round" stroke-width="0.5"/><path d="M52.3,12a1.4,1.4,0,1,1,1.39-1.4A1.4,1.4,0,0,1,52.3,12Z" fill="none" stroke="#57535a" stroke-linecap="round" stroke-linejoin="round" stroke-width="0.5"/><path d="M60.74,3.05a1.4,1.4,0,1,1,1.4-1.4A1.4,1.4,0,0,1,60.74,3.05Z" fill="none" stroke="#57535a" stroke-linecap="round" stroke-linejoin="round" stroke-width="0.5"/></svg>